<?xml version="1.0" encoding="utf-8"?>
<svg version="1.1" xmlns:xlink="http://www.w3.org/1999/xlink" width="277px" height="277px" xmlns="http://www.w3.org/2000/svg">
  <g transform="matrix(1 0 0 1 -270 -510 )">
    <path d="M 408.5 510  C 486.06 510  547 570.94  547 648.5  C 547 726.06  486.06 787  408.5 787  C 330.94 787  270 726.06  270 648.5  C 270 570.94  330.94 510  408.5 510  Z " fill-rule="nonzero" fill="#ffffff" stroke="none" />
    <path d="M 408.5 510.5  C 485.78 510.5  546.5 571.22  546.5 648.5  C 546.5 725.78  485.78 786.5  408.5 786.5  C 331.22 786.5  270.5 725.78  270.5 648.5  C 270.5 571.22  331.22 510.5  408.5 510.5  Z " stroke-width="1" stroke="#797979" fill="none" />
  </g>
</svg>