<?xml version="1.0" encoding="utf-8"?>
<svg version="1.1" xmlns:xlink="http://www.w3.org/1999/xlink" width="300px" height="170px" xmlns="http://www.w3.org/2000/svg">
  <g transform="matrix(1 0 0 1 -109 -485 )">
    <path d="M 109 485  L 409 485  L 409 655  L 109 655  L 109 485  " fill-rule="nonzero" fill="#cccccc" stroke="none" />
    <path d="M 121 497  L 397 497  L 397 643  L 121 643  L 121 497  " fill-rule="nonzero" fill="#ffffff" stroke="none" />
    <path d="M 277.75 536  C 270.61 536  265 530.39  265 523.25  C 265 516.11  270.61 510.5  277.75 510.5  C 284.89 510.5  290.5 516.11  290.5 523.25  C 290.5 530.39  284.89 536  277.75 536  " fill-rule="nonzero" fill="#cccccc" stroke="none" />
    <path d="M 126 639  L 126 563.65  L 192.75 529.4  L 286.2 592.42  L 339.6 549.95  L 393 592.42  L 393 639  L 126 639  " fill-rule="nonzero" fill="#169bd5" stroke="none" />
  </g>
</svg>