<?xml version="1.0" encoding="utf-8"?>
<svg version="1.1" xmlns:xlink="http://www.w3.org/1999/xlink" width="110px" height="70px" xmlns="http://www.w3.org/2000/svg">
  <g transform="matrix(1 0 0 1 -448 -451 )">
    <path d="M 458.5 520.5  L 557.5 520.5  L 557.5 461.5  L 552.5 461.5  L 552.5 456.5  L 547.5 456.5  L 547.5 451.5  L 448.5 451.5  L 448.5 510.5  L 453.5 510.5  L 453.5 515.5  L 458.5 515.5  L 458.5 520.5  Z " fill-rule="nonzero" fill="#ffffff" stroke="none" />
    <path d="M 458.5 520.5  L 557.5 520.5  L 557.5 461.5  L 552.5 461.5  L 552.5 456.5  L 547.5 456.5  L 547.5 451.5  L 448.5 451.5  L 448.5 510.5  L 453.5 510.5  L 453.5 515.5  L 458.5 515.5  L 458.5 520.5  Z " stroke-width="1" stroke="#797979" fill="none" />
    <path d="M 552.5 462  L 552.5 515.5  L 459 515.5  M 547.5 457  L 547.5 510.5  L 454 510.5  " stroke-width="1" stroke="#797979" fill="none" />
  </g>
</svg>